<!-- icon666.com - MILLIONS vector ICONS FREE --><svg id="Layer_2" viewBox="0 0 32 32" xmlns="http://www.w3.org/2000/svg" data-name="Layer 2"><path d="m16 1a15 15 0 1 0 15 15 15.01672 15.01672 0 0 0 -15-15zm0 28a12.983 12.983 0 0 1 -9.86163-21.44714l3.03949 3.03943a2.994 2.994 0 0 0 -1.39173 2.52392v6.42871a3.00328 3.00328 0 0 0 3 3h10.34461l3.31653 3.31641a12.9329 12.9329 0 0 1 -8.44727 3.13867zm0-9.36816a3.544 3.544 0 0 0 1.745-.4726l1.38574 1.38568h-8.34461a1.00068 1.00068 0 0 1 -1-1v-6.42871a.99376.99376 0 0 1 .92987-.98578l2.16736 2.1673a3.54481 3.54481 0 0 0 -.47223 1.74475 3.59355 3.59355 0 0 0 3.58887 3.58936zm0-7.17872a3.54169 3.54169 0 0 0 -1.69031.44282l-1.08819-1.08814a2.00578 2.00578 0 0 0 .73748-.81708l.39844-.82129 3.28418.00049.40039.82178a2.01311 2.01311 0 0 0 1.79785 1.12451h1.374a1.001 1.001 0 0 1 1 1v6.42871a.98258.98258 0 0 1 -.44538.80963l-2.62207-2.622a3.54323 3.54323 0 0 0 .44245-1.69006 3.59355 3.59355 0 0 0 -3.58884-3.58937zm-.12085 2.01221c.04059-.00311.07947-.01221.12085-.01221a1.59094 1.59094 0 0 1 1.58887 1.58936c0 .0412-.009.0799-.01215.12036zm.31842 3.14655a1.56271 1.56271 0 0 1 -.19757.02 1.59094 1.59094 0 0 1 -1.58887-1.58936 1.56624 1.56624 0 0 1 .0199-.19708zm9.66376 6.83539-2.66675-2.66669a2.98134 2.98134 0 0 0 1.01929-2.23566v-6.42871a3.00328 3.00328 0 0 0 -3-3l-1.374-.00049-.39941-.81982a2.00988 2.00988 0 0 0 -1.79785-1.12647h-3.28519a2.01072 2.01072 0 0 0 -1.79785 1.12549l-.39941.82129h-.63025l-3.97748-3.97742a12.9829 12.9829 0 0 1 18.3089 18.30848z"></path></svg>